<svg version="1.1" id="Layer_1" xmlns="http://www.w3.org/2000/svg" xmlns:xlink="http://www.w3.org/1999/xlink" x="0px" y="0px"
	 width="100%" viewBox="30 20 1495 650" enable-background="new 0 0 1555 670" xml:space="preserve">
<path fill="#040404" opacity="1.000000" stroke="none" 
	d="
M1507.980225,622.325439 
	C1415.319214,622.325378 1323.154297,622.326050 1230.989258,622.324036 
	C1223.023682,622.323853 1223.021606,622.315735 1223.018799,614.249634 
	C1223.017456,610.416443 1223.082520,606.582153 1223.011353,602.750366 
	C1222.956543,599.793213 1224.483643,598.489258 1227.248901,598.363220 
	C1228.745972,598.294922 1230.248169,598.330383 1231.748047,598.330383 
	C1317.413208,598.329346 1403.078247,598.329834 1488.743408,598.328735 
	C1496.008423,598.328674 1496.014038,598.324158 1496.014038,591.300537 
	C1496.015137,416.470337 1496.014893,241.640152 1496.014160,66.809967 
	C1496.014038,59.687386 1496.009766,59.682106 1488.846680,59.682095 
	C1013.855408,59.681297 538.864136,59.681313 63.872849,59.682415 
	C56.915077,59.682430 56.909061,59.689224 56.908718,66.443787 
	C56.899902,241.440628 56.892212,416.437469 56.885525,591.434326 
	C56.885269,598.121887 56.890762,598.119568 63.805069,598.124756 
	C149.803452,598.189148 235.801849,598.253357 321.800232,598.320557 
	C329.731812,598.326782 329.839294,598.443909 329.836823,606.488342 
	C329.835663,610.321594 329.829590,614.154846 329.822113,617.988098 
	C329.816559,620.837646 328.548279,622.359802 325.536682,622.129211 
	C324.542603,622.053101 323.537659,622.119263 322.537689,622.119263 
	C228.206055,622.119324 133.874420,622.119324 39.542793,622.119324 
	C37.582935,622.119324 35.623077,622.119324 32.943085,622.119324 
	C32.943085,619.524353 32.943005,617.423462 32.943100,615.322571 
	C32.951935,424.659332 32.960724,233.996094 32.969898,43.332848 
	C32.970238,36.309959 32.972015,36.311100 40.113548,36.313919 
	C349.441193,36.435997 658.768860,36.624763 968.096497,36.654289 
	C1149.426514,36.671597 1330.756470,36.435097 1512.086426,36.313175 
	C1519.935059,36.307896 1519.935913,36.309826 1519.935913,44.207325 
	C1519.936157,233.870575 1519.940796,423.533844 1519.923340,613.197083 
	C1519.922363,623.591675 1521.115112,622.214966 1510.967651,622.324219 
	C1510.137207,622.333191 1509.306641,622.325439 1507.980225,622.325439 
z"/>
<path fill="#030303" opacity="1.000000" stroke="none" 
	d="
M1108.590454,394.583008 
	C1105.173950,382.680878 1101.751221,371.198914 1098.664062,359.627411 
	C1097.473633,355.165894 1095.658936,352.520050 1090.488403,353.272400 
	C1087.552490,353.699524 1084.503540,353.344543 1081.505493,353.350586 
	C1074.763794,353.364197 1074.753540,353.366425 1074.750610,359.901611 
	C1074.744019,374.891815 1074.627930,389.883545 1074.822998,404.871216 
	C1074.880493,409.291748 1073.690430,411.170105 1068.910889,411.016754 
	C1059.094116,410.701874 1049.256592,410.769012 1039.434814,410.992889 
	C1035.195190,411.089539 1033.499634,409.800171 1033.509155,405.330139 
	C1033.618652,353.864044 1033.614380,302.397522 1033.514526,250.931351 
	C1033.505981,246.576111 1035.025879,245.131668 1039.359619,245.150787 
	C1069.672485,245.284622 1099.986694,245.147369 1130.298706,245.358109 
	C1132.787842,245.375412 1135.524780,246.950531 1137.702515,248.447556 
	C1150.211304,257.046173 1154.364014,268.742279 1153.013916,283.975708 
	C1151.637207,299.510132 1152.895752,315.265778 1152.543823,330.914307 
	C1152.477661,333.854675 1151.088501,337.895233 1148.900879,339.467499 
	C1137.913940,347.363434 1136.283813,356.483612 1141.385620,368.906097 
	C1146.099609,380.384277 1148.550049,392.793365 1151.975342,404.798767 
	C1153.416870,409.850952 1152.782715,410.750580 1147.550415,410.777863 
	C1137.723877,410.829132 1127.894531,410.671631 1118.071045,410.854980 
	C1114.416870,410.923187 1112.561646,409.579132 1111.789673,406.026611 
	C1110.978516,402.293976 1109.759155,398.650085 1108.590454,394.583008 
M1097.461426,319.784882 
	C1099.961426,319.784668 1102.464233,319.708374 1104.960815,319.800537 
	C1109.677124,319.974609 1112.145996,317.980652 1112.106934,313.050507 
	C1112.036987,304.217987 1112.090088,295.384308 1112.118530,286.551208 
	C1112.130493,282.822021 1110.648071,280.369354 1106.629517,280.324463 
	C1097.798218,280.225739 1088.965332,280.180023 1080.133667,280.223938 
	C1076.517212,280.241913 1074.602051,282.271729 1074.568481,285.887970 
	C1074.483643,295.052856 1074.451416,304.218231 1074.410767,313.383484 
	C1074.391357,317.771606 1076.693604,319.700897 1080.977905,319.679932 
	C1086.143188,319.654694 1091.309204,319.744690 1097.461426,319.784882 
z"/>
<path fill="#040404" opacity="1.000000" stroke="none" 
	d="
M1186.071289,328.866150 
	C1184.639526,324.526520 1182.476562,320.531769 1182.326294,316.462616 
	C1181.858887,303.814117 1182.932251,291.076324 1181.942993,278.488281 
	C1180.892090,265.114899 1188.020508,257.053101 1197.232300,249.569992 
	C1201.346802,246.227661 1205.966553,245.144058 1211.170166,245.173996 
	C1230.834839,245.287186 1250.548218,246.068863 1270.151611,244.967407 
	C1287.836426,243.973770 1300.265747,260.559052 1300.975830,273.516571 
	C1301.255371,278.620117 1300.573120,283.789703 1300.145020,288.913849 
	C1299.880127,292.083588 1297.938477,293.501770 1294.720825,293.480164 
	C1285.221802,293.416351 1275.721436,293.384918 1266.223389,293.496887 
	C1262.823242,293.536926 1260.928711,292.079529 1260.137085,288.865723 
	C1259.660400,286.930206 1259.524780,284.651917 1258.379639,283.205231 
	C1256.940186,281.386505 1254.702148,279.175018 1252.674438,279.031586 
	C1245.544067,278.527161 1238.354004,278.733002 1231.190430,278.868347 
	C1225.216553,278.981232 1222.454102,281.805725 1222.271484,287.904297 
	C1222.121948,292.899506 1222.187012,297.903290 1222.248901,302.902130 
	C1222.326294,309.141846 1224.760742,311.555756 1231.138184,311.634247 
	C1244.133789,311.794312 1257.138184,312.223877 1270.124390,311.920044 
	C1291.965332,311.409088 1299.599731,323.124664 1300.785522,340.846832 
	C1301.815186,356.236877 1301.160278,371.825104 1300.088501,387.245056 
	C1299.113647,401.270813 1288.372192,410.632233 1274.360107,410.784180 
	C1252.033813,411.026337 1229.702637,411.014069 1207.375244,410.858215 
	C1195.069824,410.772339 1182.366333,397.928619 1182.096313,385.750671 
	C1181.981812,380.586884 1182.040894,375.419312 1181.939087,370.255096 
	C1181.869019,366.704834 1183.595459,364.981049 1187.059570,364.971710 
	C1196.725586,364.945557 1206.391724,365.003204 1216.057373,364.938232 
	C1219.724243,364.913605 1221.297852,366.905304 1222.286743,370.170502 
	C1224.987061,379.084351 1225.076172,379.057831 1234.393433,379.058441 
	C1240.059692,379.058838 1245.727539,379.141602 1251.391846,379.034363 
	C1257.638428,378.916107 1259.846558,376.698303 1259.909546,370.549225 
	C1259.979614,363.717102 1260.016724,356.882019 1259.892578,350.051422 
	C1259.792847,344.568024 1257.822021,342.391022 1252.360840,342.285522 
	C1239.704590,342.040985 1227.035767,341.770996 1214.385620,342.074768 
	C1202.741455,342.354431 1193.071533,339.075043 1186.071289,328.866150 
z"/>
<path fill="#030303" opacity="1.000000" stroke="none" 
	d="
M753.022461,361.999756 
	C752.815979,325.676422 752.615295,289.853088 752.398560,254.029861 
	C752.349792,245.964066 752.626099,245.689606 760.852173,245.649918 
	C788.344299,245.517303 815.838806,245.529358 843.326477,245.103378 
	C850.056580,244.999084 855.303650,247.042816 859.754089,251.820801 
	C861.569946,253.770233 863.482361,255.629318 865.324707,257.554535 
	C869.519104,261.937744 871.593750,266.838531 871.490356,273.239105 
	C871.199707,291.226593 871.646179,309.225067 871.707397,327.219513 
	C871.754089,340.921570 855.757263,353.968109 839.976074,353.618469 
	C826.492065,353.319641 812.995728,353.606781 799.508606,353.395935 
	C794.849365,353.323120 793.404663,355.306244 793.468628,359.707336 
	C793.691528,375.034454 793.593201,390.366333 793.836304,405.692963 
	C793.894043,409.332184 792.840515,410.756866 789.064453,410.708801 
	C778.569702,410.575226 768.069458,410.655365 757.574890,410.843842 
	C754.307251,410.902527 753.206787,409.727661 753.215332,406.487640 
	C753.254028,391.825317 753.104309,377.162445 753.022461,361.999756 
M830.232483,288.034973 
	C829.338989,282.738892 825.921997,280.326508 820.835693,280.215363 
	C813.189819,280.048218 805.538391,280.150391 797.890930,280.032959 
	C794.868774,279.986542 793.823975,281.331818 793.840027,284.268433 
	C793.897339,294.743439 793.848877,305.220032 793.719177,315.694489 
	C793.681702,318.723511 794.966980,319.828949 797.899414,319.806610 
	C805.380920,319.749542 812.866394,319.991669 820.344971,319.843506 
	C826.887024,319.713928 830.127930,316.355560 830.219360,309.882660 
	C830.317993,302.899658 830.242981,295.914246 830.232483,288.034973 
z"/>
<path fill="#030303" opacity="1.000000" stroke="none" 
	d="
M723.306641,311.000061 
	C723.306641,315.664734 722.649719,319.956085 723.423889,323.971527 
	C726.303223,338.905853 706.067993,355.147247 692.751343,354.176483 
	C678.997253,353.173889 665.127563,353.839874 651.314209,353.525574 
	C646.349976,353.412567 644.568054,355.216614 644.651855,360.248962 
	C644.901489,375.237762 644.541016,390.237579 644.857239,405.223846 
	C644.958984,410.045532 643.296997,411.141327 638.839355,411.011963 
	C628.852478,410.722076 618.849243,410.801941 608.857300,410.984894 
	C605.290039,411.050201 603.883301,410.119995 603.891724,406.249481 
	C604.003784,354.607391 603.996399,302.964905 603.914429,251.322708 
	C603.907288,246.821274 605.654419,245.036667 610.123352,245.048920 
	C639.442627,245.129349 668.763672,244.958527 698.079956,245.264587 
	C701.574585,245.301086 705.696716,246.949707 708.382446,249.211349 
	C713.168579,253.241730 717.341248,258.106049 721.222412,263.051697 
	C722.696045,264.929413 723.182556,267.987305 723.218323,270.520020 
	C723.406494,283.844452 723.306580,297.172974 723.306641,311.000061 
M644.324707,311.207581 
	C644.399841,318.968903 645.209167,319.782867 652.913086,319.789246 
	C660.391235,319.795410 667.870178,319.720123 675.347107,319.815277 
	C679.693054,319.870575 681.786133,318.021057 681.757935,313.568420 
	C681.700989,304.596069 681.723206,295.621246 681.876465,286.650269 
	C681.956787,281.949738 679.789307,280.063110 675.212891,280.132660 
	C667.238037,280.253845 659.259888,280.131195 651.283447,280.177429 
	C645.581482,280.210480 644.395142,281.413239 644.341797,287.342010 
	C644.273071,294.985718 644.324890,302.630463 644.324707,311.207581 
z"/>
<path fill="#040404" opacity="1.000000" stroke="none" 
	d="
M900.531738,361.999695 
	C900.531738,325.182098 900.530884,288.864563 900.532349,252.546997 
	C900.532654,245.229431 900.536621,245.221313 907.609070,245.220596 
	C939.261963,245.217361 970.914917,245.214066 1002.567810,245.223373 
	C1008.853455,245.225220 1009.020020,245.402924 1009.032654,251.669510 
	C1009.047852,259.166229 1008.842163,266.669922 1009.108887,274.157166 
	C1009.268982,278.652466 1007.827026,280.342010 1003.130310,280.287689 
	C984.474243,280.071869 965.811829,280.362427 947.157227,280.090027 
	C942.186340,280.017426 940.773804,281.729401 940.987854,286.423737 
	C941.298706,293.239929 941.197693,300.084290 941.016541,306.909821 
	C940.917969,310.621674 942.373779,311.875488 946.028931,311.826691 
	C957.688477,311.670959 969.354248,311.919830 981.011414,311.691956 
	C985.365295,311.606842 986.951660,313.024506 986.731079,317.438202 
	C986.415466,323.752991 986.465088,330.102722 986.716736,336.423279 
	C986.880310,340.532745 985.445496,342.025818 981.268982,341.949554 
	C969.777832,341.739685 958.276611,342.047333 946.787170,341.793976 
	C942.159363,341.691895 940.669312,343.267487 940.857666,347.868408 
	C941.191284,356.017883 941.161194,364.198303 940.870361,372.351044 
	C940.703674,377.021851 942.426208,378.327362 946.978516,378.272888 
	C965.634399,378.049408 984.295776,378.296387 1002.952209,378.096680 
	C1007.531006,378.047668 1009.191895,379.504547 1008.996887,384.133331 
	C1008.688660,391.450500 1008.809998,398.792358 1008.961365,406.119354 
	C1009.031311,409.506256 1007.810669,410.961273 1004.338989,410.955414 
	C971.186829,410.899506 938.034485,410.895386 904.882324,410.959167 
	C901.237549,410.966187 900.458374,409.218536 900.483215,405.980225 
	C900.594360,391.487457 900.531616,376.993317 900.531738,361.999695 
z"/>
<path fill="#030303" opacity="1.000000" stroke="none" 
	d="
M320.505554,377.684448 
	C327.547943,377.371307 329.476990,375.807617 330.197296,369.173920 
	C330.708130,364.469025 332.762512,362.491638 337.610657,362.633423 
	C346.430969,362.891357 355.265472,362.794373 364.091522,362.669373 
	C368.338135,362.609222 370.142059,364.368317 370.024445,368.650299 
	C369.850708,374.974915 369.997345,381.307922 369.977448,387.637268 
	C369.944672,398.079803 357.450653,411.310181 346.989532,411.404633 
	C325.175659,411.601593 303.353271,411.761292 281.544739,411.365936 
	C263.147675,411.032471 253.259109,401.269653 252.157135,381.786285 
	C251.303452,366.692780 251.872665,351.517548 251.850006,336.378601 
	C251.821365,317.238037 251.594742,298.093018 251.942993,278.958862 
	C252.088318,270.973663 253.522354,262.967041 258.578278,256.312897 
	C264.413422,248.633255 272.735809,246.048431 281.924988,246.012375 
	C303.407745,245.928070 324.893005,245.910065 346.373932,246.155136 
	C357.853790,246.286118 370.105408,259.256897 370.085144,270.694275 
	C370.074524,276.689850 369.843018,282.691010 370.038300,288.679016 
	C370.183746,293.137604 368.514465,295.078918 363.942780,294.976990 
	C354.786499,294.772797 345.623535,294.788422 336.464142,294.844238 
	C332.810760,294.866486 331.063446,293.346710 330.552094,289.663025 
	C329.364655,281.109406 327.880432,279.950653 319.310150,279.948090 
	C312.814178,279.946167 306.315094,280.070099 299.823364,279.904053 
	C295.640198,279.797058 293.632385,281.501648 293.587982,285.723328 
	C293.353394,308.032135 293.016693,330.339966 292.838257,352.649139 
	C292.790314,358.638885 293.064331,364.637909 293.387268,370.622070 
	C293.718414,376.758240 294.759003,377.639069 301.067566,377.677032 
	C307.396790,377.715088 313.726440,377.685120 320.505554,377.684448 
z"/>
<path fill="#050505" opacity="1.000000" stroke="none" 
	d="
M440.669312,272.000244 
	C440.669312,305.812042 440.751801,339.124237 440.573883,372.435089 
	C440.549255,377.044098 441.857147,378.445129 446.506409,378.385590 
	C465.491028,378.142487 484.481567,378.390625 503.467468,378.203705 
	C507.789307,378.161163 509.416260,379.443054 509.237915,383.889679 
	C508.937836,391.372803 509.057709,398.878540 509.201050,406.370941 
	C509.262573,409.586060 508.063660,410.839874 504.832397,410.834198 
	C471.354156,410.775360 437.875702,410.767120 404.397522,410.834259 
	C400.355743,410.842377 399.897552,408.634735 399.906860,405.372070 
	C399.976868,380.888123 399.944794,356.403870 399.944733,331.919708 
	C399.944672,305.103699 400.033905,278.287140 399.860565,251.472260 
	C399.830231,246.779922 401.094574,244.932922 406.064606,245.112289 
	C415.712494,245.460495 425.385468,245.371796 435.040558,245.144958 
	C439.450531,245.041367 440.913147,246.705536 440.741547,251.016281 
	C440.470215,257.834412 440.669312,264.671265 440.669312,272.000244 
z"/>
<path fill="#060606" opacity="1.000000" stroke="none" 
	d="
M574.688171,347.000214 
	C574.688171,366.992279 574.604065,386.485016 574.762756,405.975769 
	C574.792603,409.645142 573.791321,410.963867 569.994141,410.878571 
	C560.003296,410.654114 550.001526,410.674500 540.009460,410.870728 
	C536.406311,410.941467 535.037231,409.960175 535.044922,406.123932 
	C535.149841,354.145355 535.155457,302.166412 535.038391,250.187897 
	C535.029175,246.082794 536.567749,245.073227 540.333252,245.148407 
	C549.825562,245.337952 559.330505,245.415298 568.817566,245.122742 
	C573.368591,244.982422 574.822021,246.337631 574.792480,251.039825 
	C574.592651,282.858887 574.688171,314.679840 574.688171,347.000214 
z"/>
<path fill="#070707" opacity="1.000000" stroke="none" 
	d="
M686.578369,613.444092 
	C698.506287,629.378052 689.287659,649.937317 669.139954,651.848267 
	C657.074463,652.992554 644.848328,652.470947 632.693481,652.626831 
	C629.295288,652.670410 627.570312,651.068542 627.580261,647.405579 
	C627.652039,621.076355 627.636963,594.746887 627.596558,568.417542 
	C627.591736,565.302246 628.545898,562.990112 631.975830,563.051086 
	C644.114197,563.266907 656.360352,562.740173 668.358032,564.200806 
	C683.456238,566.038940 691.582703,579.279968 687.175110,593.376221 
	C686.236084,596.379089 683.641479,599.239441 681.098389,601.278442 
	C677.194702,604.408325 676.929993,605.633179 681.020996,608.691711 
	C682.876831,610.079102 684.581604,611.668579 686.578369,613.444092 
M674.580933,636.124023 
	C680.817871,629.260742 680.355774,621.386963 673.019043,616.608154 
	C670.335266,614.860107 666.972961,613.578125 663.805237,613.271667 
	C657.701782,612.681335 651.515747,612.968323 645.365417,612.827637 
	C642.643555,612.765442 641.477295,613.945923 641.476562,616.701111 
	C641.474792,623.350647 641.371399,630.001648 641.194519,636.648987 
	C641.111633,639.760315 642.696594,640.695068 645.505127,640.675903 
	C650.658691,640.640564 655.887329,641.289551 660.944946,640.611328 
	C665.397400,640.014404 669.659180,637.994629 674.580933,636.124023 
M641.490662,596.866577 
	C641.260925,600.656738 643.410217,601.828613 646.778992,601.712036 
	C651.592407,601.545349 656.413696,601.524475 661.219299,601.235291 
	C669.641785,600.728271 674.791809,595.784912 674.830566,588.380310 
	C674.870178,580.791748 669.461426,575.471436 661.018921,575.136475 
	C656.210266,574.945740 651.382324,575.297852 646.566772,575.207825 
	C642.446350,575.130859 640.932251,577.035217 641.147095,581.026062 
	C641.414856,585.999146 641.387878,590.988098 641.490662,596.866577 
z"/>
<path fill="#070707" opacity="1.000000" stroke="none" 
	d="
M459.577423,614.475769 
	C470.312531,630.680664 460.724762,650.236511 441.057526,651.858093 
	C428.984039,652.853577 416.784058,652.308228 404.641083,652.471436 
	C401.310730,652.516174 399.823608,650.929077 399.828003,647.590271 
	C399.862671,621.119873 399.853271,594.649414 399.840393,568.179016 
	C399.838837,564.984192 401.186676,563.010559 404.545593,563.084351 
	C416.505493,563.346985 428.577271,562.770020 440.394592,564.229004 
	C456.375488,566.201965 464.201660,579.999023 458.865753,595.067261 
	C458.056519,597.352478 456.052765,599.574768 454.020691,600.995178 
	C449.124237,604.417786 449.015259,605.485413 453.899872,609.138367 
	C455.872894,610.613953 457.538208,612.500977 459.577423,614.475769 
M423.684021,640.735535 
	C431.231262,641.151306 438.723969,641.168701 445.414368,636.870483 
	C451.455078,632.989685 453.099884,625.027222 448.532776,620.097656 
	C446.467133,617.868103 443.609039,615.501892 440.792328,615.006653 
	C433.147583,613.662292 425.340576,613.152710 417.575348,612.695923 
	C416.632294,612.640503 414.788940,614.862854 414.667938,616.152039 
	C414.186493,621.281372 414.201111,626.458679 414.071075,631.619263 
	C413.847137,640.509277 413.859436,640.509583 423.684021,640.735535 
M425.530640,575.148193 
	C423.531311,575.178833 421.523376,575.341614 419.534454,575.212280 
	C415.506378,574.950195 413.688385,576.555603 413.932800,580.747559 
	C414.242920,586.065857 414.290771,591.403259 414.317932,596.733093 
	C414.335663,600.214905 415.633545,602.001892 419.395660,601.744019 
	C424.378174,601.402405 429.395691,601.513855 434.366669,601.074463 
	C442.092773,600.391479 446.457886,596.032166 446.655670,589.240356 
	C446.895325,581.008789 443.166199,576.425964 434.973083,575.306274 
	C432.190155,574.925964 429.320374,575.180786 425.530640,575.148193 
z"/>
<path fill="#0A0A0A" opacity="1.000000" stroke="none" 
	d="
M771.360962,574.107117 
	C771.365540,563.433960 771.364380,563.166321 781.879272,563.121765 
	C791.332458,563.081848 800.892883,562.963318 810.215637,564.254578 
	C820.715393,565.708862 828.980469,571.151978 831.601807,582.402466 
	C834.406738,594.441101 832.774841,605.410950 822.420349,613.466858 
	C818.279846,616.688232 817.716614,619.523254 820.527100,623.951904 
	C825.071350,631.112671 829.178162,638.557861 833.273560,645.991028 
	C834.148621,647.579102 835.120300,650.416138 834.390686,651.282471 
	C833.282593,652.598267 830.750549,653.105774 828.779175,653.225037 
	C824.216919,653.501160 820.900452,651.294006 818.633240,647.300354 
	C814.195862,639.484070 809.664429,631.721008 805.144592,623.951904 
	C802.370972,619.184387 791.249023,616.160767 786.768188,619.213501 
	C785.712646,619.932556 785.154724,622.023743 785.124756,623.499084 
	C784.965759,631.323425 784.823059,639.161438 785.127747,646.977051 
	C785.323486,651.998230 783.114075,653.335754 778.546387,653.171631 
	C772.297974,652.947083 771.385132,652.453308 771.376892,647.036316 
	C771.340149,622.887512 771.360901,598.738586 771.360962,574.107117 
M818.584412,592.379395 
	C818.507141,580.747253 813.156189,575.353333 801.460876,575.175049 
	C797.795105,575.119202 794.116150,575.348145 790.464539,575.113953 
	C786.992554,574.891357 785.621277,576.273010 785.657349,579.682800 
	C785.740112,587.514893 785.744202,595.349854 785.624268,603.181213 
	C785.577332,606.248413 786.875122,607.322510 789.828491,607.233765 
	C794.491028,607.093628 799.164612,607.307068 803.826050,607.150146 
	C812.362366,606.862671 817.583984,601.877563 818.584412,592.379395 
z"/>
<path fill="#070707" opacity="1.000000" stroke="none" 
	d="
M563.621704,562.715393 
	C574.353333,563.112305 584.746948,562.755554 594.883606,564.200745 
	C605.089966,565.655945 612.687012,571.548767 615.114868,582.346130 
	C617.744324,594.039917 615.958435,604.575562 606.467773,612.832458 
	C600.633179,617.908630 600.588318,617.847229 604.536621,624.683350 
	C608.702026,631.895386 612.934692,639.070251 616.984802,646.346558 
	C619.582886,651.014160 618.206421,653.001282 612.793518,653.126099 
	C607.995972,653.236694 604.448730,651.319519 602.070862,647.176880 
	C597.677734,639.523621 593.050537,631.992554 588.974670,624.174011 
	C586.572021,619.565186 583.438293,617.363281 578.252380,618.099609 
	C576.782166,618.308350 575.248535,618.235840 573.759094,618.111633 
	C569.926514,617.792114 568.330627,619.383545 568.396362,623.315552 
	C568.527161,631.142639 568.117188,638.982361 568.372620,646.802429 
	C568.530945,651.645447 566.285034,652.810364 562.029541,652.722900 
	C555.617676,652.591248 554.678162,652.072754 554.683716,646.814026 
	C554.711060,620.818481 554.944153,594.821960 554.767212,568.828064 
	C554.721130,562.055420 559.162903,563.082520 563.621704,562.715393 
M601.558167,598.721924 
	C606.073730,585.075562 599.213623,575.288330 585.020020,575.160522 
	C580.523010,575.120056 576.023682,575.226868 571.528503,575.128906 
	C568.838806,575.070435 567.534729,576.052979 567.543518,578.888916 
	C567.568848,587.049194 567.528870,595.210999 567.376892,603.369690 
	C567.325745,606.120300 568.313416,607.323547 571.132935,607.274353 
	C576.626709,607.178528 582.125000,607.339905 587.618896,607.246704 
	C593.550781,607.146118 598.192383,604.646057 601.558167,598.721924 
z"/>
<path fill="#070707" opacity="1.000000" stroke="none" 
	d="
M930.111633,565.076538 
	C930.482483,575.609497 930.835449,585.757446 930.755310,595.901978 
	C930.721375,600.204346 932.112732,601.837036 936.506409,601.747803 
	C947.331482,601.527832 958.166077,601.555054 968.992615,601.735718 
	C973.274414,601.807190 974.950317,600.307739 974.832092,595.914246 
	C974.590149,586.923889 974.920410,577.918518 974.698425,568.927124 
	C974.569763,563.714417 977.580505,562.893555 981.705688,562.811279 
	C985.819519,562.729370 988.414429,563.929321 988.401978,568.688110 
	C988.333984,594.678894 988.398071,620.669983 988.351135,646.660828 
	C988.342041,651.674683 986.700317,653.061951 981.582214,653.000854 
	C977.428711,652.951294 974.545715,651.915955 974.689148,646.759094 
	C974.939270,637.769165 974.619385,628.764221 974.816772,619.771667 
	C974.912048,615.428711 973.263977,613.902771 968.929749,613.991028 
	C958.104675,614.211731 947.267822,614.240051 936.444580,613.979431 
	C931.918030,613.870483 930.666260,615.674316 930.774597,619.876831 
	C930.989136,628.201721 930.845581,636.536072 930.835449,644.866516 
	C930.827148,651.721130 929.727844,652.990845 923.856995,652.999023 
	C918.243530,653.006897 917.164673,651.662231 917.163940,644.614563 
	C917.161438,620.291931 917.088806,595.968750 917.266418,571.647400 
	C917.286438,568.917419 918.186096,564.279541 919.629395,563.868713 
	C922.729797,562.985962 926.451294,564.284546 930.111633,565.076538 
z"/>
<path fill="#080808" opacity="1.000000" stroke="none" 
	d="
M1014.429810,571.420288 
	C1033.347412,555.818604 1055.615967,558.536926 1069.991455,577.922791 
	C1083.899658,596.678528 1082.221680,625.537354 1066.233398,642.558350 
	C1047.383911,662.625366 1016.544434,656.545837 1004.057373,630.301208 
	C994.724365,610.685730 998.809204,587.023376 1014.429810,571.420288 
M1066.377563,605.649109 
	C1066.049561,597.937500 1063.450562,591.048279 1058.933594,584.823547 
	C1049.837891,572.288818 1033.479370,570.897217 1022.503357,581.752686 
	C1009.434204,594.678467 1008.592712,618.417114 1020.709778,632.346375 
	C1030.661743,643.786865 1046.113647,644.335449 1056.698120,633.502930 
	C1063.988403,626.041626 1066.557373,616.783936 1066.377563,605.649109 
z"/>
<path fill="#080808" opacity="1.000000" stroke="none" 
	d="
M513.952698,629.336853 
	C507.795715,629.336975 502.129211,629.395264 496.464569,629.317444 
	C492.509705,629.263123 489.870422,630.654541 488.649567,634.730713 
	C487.363953,639.023193 485.683411,643.205627 484.023560,647.375671 
	C482.019073,652.411682 476.578857,654.815674 471.797974,652.754272 
	C468.871155,651.492249 468.848969,649.120117 469.815552,646.458191 
	C478.500824,622.540161 487.160370,598.612854 495.827454,574.688171 
	C496.223511,573.594971 496.628540,572.504883 497.012817,571.407532 
	C499.837341,563.341125 504.712585,560.651245 512.758362,563.359802 
	C514.639709,563.993103 516.656616,566.155518 517.357117,568.072693 
	C526.842102,594.030090 536.106567,620.068176 545.421936,646.087524 
	C546.376953,648.755005 546.985046,651.390991 543.572510,652.808655 
	C539.754456,654.394714 534.177185,652.938477 532.484985,649.575989 
	C530.847412,646.322021 529.700256,642.809265 528.478638,639.360291 
	C525.014954,629.580933 525.043274,629.570923 513.952698,629.336853 
M518.166809,608.369202 
	C515.484741,600.883301 512.871948,593.371033 510.048462,585.938843 
	C509.609009,584.782166 508.208252,583.990601 507.252045,583.030212 
	C506.448090,583.993103 505.260803,584.831421 504.900909,585.938660 
	C502.085510,594.600464 499.420868,603.311340 496.727448,612.012634 
	C495.684235,615.382751 496.846466,617.094727 500.488037,617.055298 
	C505.463837,617.001465 510.440918,617.078125 515.416931,617.033875 
	C520.527771,616.988403 520.841492,616.496033 519.249390,611.464600 
	C518.999512,610.674866 518.761169,609.881409 518.166809,608.369202 
z"/>
<path fill="#090909" opacity="1.000000" stroke="none" 
	d="
M891.976135,650.086182 
	C879.676758,654.547058 867.455017,656.546692 855.910950,650.006287 
	C850.645386,647.022949 846.421631,641.937744 842.350830,637.261353 
	C841.048950,635.765808 840.684937,631.436157 841.800110,630.333984 
	C843.415100,628.737854 846.996765,627.977112 849.312012,628.559570 
	C851.766235,629.176941 853.994141,631.532471 855.844910,633.562744 
	C863.303345,641.744385 877.163391,644.369080 885.956909,638.960938 
	C890.677551,636.057556 893.657349,631.991150 892.987671,626.178040 
	C892.382690,620.927063 888.783142,618.140686 882.549988,616.223511 
	C873.377869,613.402283 864.129639,610.594299 855.369629,606.743652 
	C848.775208,603.845032 844.720764,597.671265 842.305115,590.958313 
	C841.445923,588.570984 841.750061,585.263306 842.678162,582.813232 
	C850.635681,561.805115 877.221985,554.633911 894.832092,568.846619 
	C898.493774,571.801941 901.448669,575.825256 904.104858,579.776245 
	C906.440125,583.249634 904.698059,586.391296 900.535461,585.908081 
	C897.224365,585.523743 893.495300,583.949707 891.060730,581.702454 
	C883.672913,574.882996 875.685303,572.060730 865.917053,575.494141 
	C859.942017,577.594299 856.350769,581.723999 856.212585,586.875366 
	C856.071899,592.120239 858.778198,595.349792 865.504761,597.670288 
	C873.061035,600.276978 880.670959,602.727905 888.232910,605.318726 
	C898.268188,608.756897 905.602112,614.858643 906.414673,626.112549 
	C907.206055,637.073669 901.904785,644.881409 891.976135,650.086182 
z"/>
<path fill="#0B0B0B" opacity="1.000000" stroke="none" 
	d="
M716.354675,585.043701 
	C716.354736,588.868530 716.586304,592.219116 716.300476,595.525024 
	C715.874939,600.447205 718.011963,601.925720 722.720825,601.740234 
	C731.367126,601.399597 740.031860,601.473877 748.688843,601.481873 
	C754.246094,601.487000 756.062195,603.159668 756.034119,607.880737 
	C756.007629,612.322632 754.233093,613.841248 748.840881,613.861572 
	C739.848389,613.895386 730.851685,614.028076 721.864746,613.802002 
	C717.675049,613.696533 716.229187,615.254578 716.429810,619.358948 
	C716.689697,624.675171 716.648193,630.020020 716.438416,635.340698 
	C716.293762,639.012146 717.654175,640.378296 721.354797,640.320374 
	C731.677185,640.158875 742.003967,640.229553 752.328613,640.280029 
	C757.875977,640.307129 759.311829,642.052490 759.097595,647.611633 
	C758.970703,650.907471 757.450378,652.636047 754.237915,652.646240 
	C738.417725,652.696411 722.597412,652.661560 706.777100,652.691040 
	C703.874817,652.696472 703.091064,651.056396 703.130615,648.518921 
	C703.210999,643.358582 703.277649,638.197144 703.262207,633.036316 
	C703.197754,611.556580 703.189514,590.075867 702.939697,568.598083 
	C702.890259,564.344116 704.041626,562.698486 708.554443,562.760681 
	C722.871460,562.957764 737.194092,562.736267 751.514526,562.709595 
	C757.671326,562.698120 758.884949,563.716187 758.943787,568.708801 
	C759.005127,573.907104 757.703735,574.986755 751.256592,575.015076 
	C742.097961,575.055359 732.939209,575.082336 723.780518,575.104004 
	C716.373718,575.121460 716.373596,575.114319 716.355225,582.551208 
	C716.353577,583.217346 716.354797,583.883423 716.354675,585.043701 
z"/>
<path fill="#090909" opacity="1.000000" stroke="none" 
	d="
M1113.919678,562.355713 
	C1122.520874,563.818054 1130.840332,564.605957 1138.696167,566.948425 
	C1145.406372,568.949280 1149.255737,574.691345 1151.331787,581.435486 
	C1155.749512,595.786438 1151.518188,610.347412 1140.906372,616.519775 
	C1133.157593,621.026855 1124.476318,621.827759 1115.802856,621.901306 
	C1103.812012,622.002930 1104.903931,621.685974 1104.901123,633.261536 
	C1104.899902,638.091003 1104.718750,642.929626 1104.959106,647.747070 
	C1105.148193,651.537170 1103.501587,652.915771 1099.957153,652.690552 
	C1098.796021,652.616760 1097.620605,652.603760 1096.461670,652.692139 
	C1092.450073,652.998230 1090.851074,651.377991 1090.892944,647.177124 
	C1091.066528,629.692810 1090.965698,612.205811 1090.965942,594.719788 
	C1090.965942,586.059998 1091.055542,577.398926 1090.926880,568.741089 
	C1090.868164,564.783936 1092.344360,562.950867 1096.469971,562.955017 
	C1102.125488,562.960754 1107.781250,562.574158 1113.919678,562.355713 
M1127.694824,608.811951 
	C1136.221313,605.543579 1138.718506,601.214417 1138.349731,590.339722 
	C1138.046021,581.381897 1132.600098,575.710632 1123.645874,575.318848 
	C1118.823486,575.107910 1113.984253,575.315247 1109.153931,575.242004 
	C1106.202148,575.197327 1104.965088,576.517090 1104.978760,579.470398 
	C1105.018188,587.965454 1104.966187,596.461548 1104.863281,604.956238 
	C1104.828979,607.786926 1105.785156,609.400879 1108.870972,609.322449 
	C1114.860962,609.170105 1120.853149,609.098022 1127.694824,608.811951 
z"/>
<path fill="none" opacity="1.000000" stroke="none" 
	d="
M1096.968140,319.784851 
	C1091.309204,319.744690 1086.143188,319.654694 1080.977905,319.679932 
	C1076.693604,319.700897 1074.391357,317.771606 1074.410767,313.383484 
	C1074.451416,304.218231 1074.483643,295.052856 1074.568481,285.887970 
	C1074.602051,282.271729 1076.517212,280.241913 1080.133667,280.223938 
	C1088.965332,280.180023 1097.798218,280.225739 1106.629517,280.324463 
	C1110.648071,280.369354 1112.130493,282.822021 1112.118530,286.551208 
	C1112.090088,295.384308 1112.036987,304.217987 1112.106934,313.050507 
	C1112.145996,317.980652 1109.677124,319.974609 1104.960815,319.800537 
	C1102.464233,319.708374 1099.961426,319.784668 1096.968140,319.784851 
z"/>
<path fill="none" opacity="1.000000" stroke="none" 
	d="
M830.238037,288.482422 
	C830.242981,295.914246 830.317993,302.899658 830.219360,309.882660 
	C830.127930,316.355560 826.887024,319.713928 820.344971,319.843506 
	C812.866394,319.991669 805.380920,319.749542 797.899414,319.806610 
	C794.966980,319.828949 793.681702,318.723511 793.719177,315.694489 
	C793.848877,305.220032 793.897339,294.743439 793.840027,284.268433 
	C793.823975,281.331818 794.868774,279.986542 797.890930,280.032959 
	C805.538391,280.150391 813.189819,280.048218 820.835693,280.215363 
	C825.921997,280.326508 829.338989,282.738892 830.238037,288.482422 
z"/>
<path fill="none" opacity="1.000000" stroke="none" 
	d="
M644.324707,310.741180 
	C644.324890,302.630463 644.273071,294.985718 644.341797,287.342010 
	C644.395142,281.413239 645.581482,280.210480 651.283447,280.177429 
	C659.259888,280.131195 667.238037,280.253845 675.212891,280.132660 
	C679.789307,280.063110 681.956787,281.949738 681.876465,286.650269 
	C681.723206,295.621246 681.700989,304.596069 681.757935,313.568420 
	C681.786133,318.021057 679.693054,319.870575 675.347107,319.815277 
	C667.870178,319.720123 660.391235,319.795410 652.913086,319.789246 
	C645.209167,319.782867 644.399841,318.968903 644.324707,310.741180 
z"/>
<path fill="none" opacity="1.000000" stroke="none" 
	d="
M674.293030,636.363647 
	C669.659180,637.994629 665.397400,640.014404 660.944946,640.611328 
	C655.887329,641.289551 650.658691,640.640564 645.505127,640.675903 
	C642.696594,640.695068 641.111633,639.760315 641.194519,636.648987 
	C641.371399,630.001648 641.474792,623.350647 641.476562,616.701111 
	C641.477295,613.945923 642.643555,612.765442 645.365417,612.827637 
	C651.515747,612.968323 657.701782,612.681335 663.805237,613.271667 
	C666.972961,613.578125 670.335266,614.860107 673.019043,616.608154 
	C680.355774,621.386963 680.817871,629.260742 674.293030,636.363647 
z"/>
<path fill="none" opacity="1.000000" stroke="none" 
	d="
M641.489380,596.418396 
	C641.387878,590.988098 641.414856,585.999146 641.147095,581.026062 
	C640.932251,577.035217 642.446350,575.130859 646.566772,575.207825 
	C651.382324,575.297852 656.210266,574.945740 661.018921,575.136475 
	C669.461426,575.471436 674.870178,580.791748 674.830566,588.380310 
	C674.791809,595.784912 669.641785,600.728271 661.219299,601.235291 
	C656.413696,601.524475 651.592407,601.545349 646.778992,601.712036 
	C643.410217,601.828613 641.260925,600.656738 641.489380,596.418396 
z"/>
<path fill="none" opacity="1.000000" stroke="none" 
	d="
M423.216187,640.707092 
	C413.859436,640.509583 413.847137,640.509277 414.071075,631.619263 
	C414.201111,626.458679 414.186493,621.281372 414.667938,616.152039 
	C414.788940,614.862854 416.632294,612.640503 417.575348,612.695923 
	C425.340576,613.152710 433.147583,613.662292 440.792328,615.006653 
	C443.609039,615.501892 446.467133,617.868103 448.532776,620.097656 
	C453.099884,625.027222 451.455078,632.989685 445.414368,636.870483 
	C438.723969,641.168701 431.231262,641.151306 423.216187,640.707092 
z"/>
<path fill="none" opacity="1.000000" stroke="none" 
	d="
M426.010468,575.146729 
	C429.320374,575.180786 432.190155,574.925964 434.973083,575.306274 
	C443.166199,576.425964 446.895325,581.008789 446.655670,589.240356 
	C446.457886,596.032166 442.092773,600.391479 434.366669,601.074463 
	C429.395691,601.513855 424.378174,601.402405 419.395660,601.744019 
	C415.633545,602.001892 414.335663,600.214905 414.317932,596.733093 
	C414.290771,591.403259 414.242920,586.065857 413.932800,580.747559 
	C413.688385,576.555603 415.506378,574.950195 419.534454,575.212280 
	C421.523376,575.341614 423.531311,575.178833 426.010468,575.146729 
z"/>
<path fill="none" opacity="1.000000" stroke="none" 
	d="
M818.580688,592.835083 
	C817.583984,601.877563 812.362366,606.862671 803.826050,607.150146 
	C799.164612,607.307068 794.491028,607.093628 789.828491,607.233765 
	C786.875122,607.322510 785.577332,606.248413 785.624268,603.181213 
	C785.744202,595.349854 785.740112,587.514893 785.657349,579.682800 
	C785.621277,576.273010 786.992554,574.891357 790.464539,575.113953 
	C794.116150,575.348145 797.795105,575.119202 801.460876,575.175049 
	C813.156189,575.353333 818.507141,580.747253 818.580688,592.835083 
z"/>
<path fill="none" opacity="1.000000" stroke="none" 
	d="
M601.388245,599.070190 
	C598.192383,604.646057 593.550781,607.146118 587.618896,607.246704 
	C582.125000,607.339905 576.626709,607.178528 571.132935,607.274353 
	C568.313416,607.323547 567.325745,606.120300 567.376892,603.369690 
	C567.528870,595.210999 567.568848,587.049194 567.543518,578.888916 
	C567.534729,576.052979 568.838806,575.070435 571.528503,575.128906 
	C576.023682,575.226868 580.523010,575.120056 585.020020,575.160522 
	C599.213623,575.288330 606.073730,585.075562 601.388245,599.070190 
z"/>
<path fill="none" opacity="1.000000" stroke="none" 
	d="
M1066.394043,606.120300 
	C1066.557373,616.783936 1063.988403,626.041626 1056.698120,633.502930 
	C1046.113647,644.335449 1030.661743,643.786865 1020.709778,632.346375 
	C1008.592712,618.417114 1009.434204,594.678467 1022.503357,581.752686 
	C1033.479370,570.897217 1049.837891,572.288818 1058.933594,584.823547 
	C1063.450562,591.048279 1066.049561,597.937500 1066.394043,606.120300 
z"/>
<path fill="none" opacity="1.000000" stroke="none" 
	d="
M518.342163,608.729431 
	C518.761169,609.881409 518.999512,610.674866 519.249390,611.464600 
	C520.841492,616.496033 520.527771,616.988403 515.416931,617.033875 
	C510.440918,617.078125 505.463837,617.001465 500.488037,617.055298 
	C496.846466,617.094727 495.684235,615.382751 496.727448,612.012634 
	C499.420868,603.311340 502.085510,594.600464 504.900909,585.938660 
	C505.260803,584.831421 506.448090,583.993103 507.252045,583.030212 
	C508.208252,583.990601 509.609009,584.782166 510.048462,585.938843 
	C512.871948,593.371033 515.484741,600.883301 518.342163,608.729431 
z"/>
<path fill="none" opacity="1.000000" stroke="none" 
	d="
M1127.269531,608.902283 
	C1120.853149,609.098022 1114.860962,609.170105 1108.870972,609.322449 
	C1105.785156,609.400879 1104.828979,607.786926 1104.863281,604.956238 
	C1104.966187,596.461548 1105.018188,587.965454 1104.978760,579.470398 
	C1104.965088,576.517090 1106.202148,575.197327 1109.153931,575.242004 
	C1113.984253,575.315247 1118.823486,575.107910 1123.645874,575.318848 
	C1132.600098,575.710632 1138.046021,581.381897 1138.349731,590.339722 
	C1138.718506,601.214417 1136.221313,605.543579 1127.269531,608.902283 
z"/>
</svg>